<?xml version="1.0" encoding="utf-8"?>
<!-- Generator: Adobe Illustrator 19.2.0, SVG Export Plug-In . SVG Version: 6.00 Build 0)  -->
<svg version="1.1" id="Layer_1" xmlns="http://www.w3.org/2000/svg" xmlns:xlink="http://www.w3.org/1999/xlink" x="0px" y="0px"
	 viewBox="0 0 1000 1000" style="enable-background:new 0 0 1000 1000;" xml:space="preserve">
<style type="text/css">
	.st0{fill:none;stroke:#000000;stroke-miterlimit:10;}
	.st1{fill:#FBAB22;}
	.st2{fill:#F14020;}
	.st3{fill:#1E96C5;}
	.st4{fill:#2CA2FB;}
	.st5{fill:#52DCFC;}
	.st6{fill:#1873A4;}
	.st7{fill:#2084F1;}
	.st8{fill:#40C9F3;}
	.st9{fill:#F9A222;}
	.st10{fill:#142133;}
</style>
<path class="st0" d="M1153.4,583.2"/>
<path class="st1" d="M145.9,507.1c30.4,25.3,77.4,8.4,111.4-10.2c29.7-16.2,55.4-37.8,82.7-60.6c32.3-27,65.7-54.9,105.9-72.9
	c30.1-13.4,58.9-18.5,85.8-15c51,6.7,90.3,35.3,107.8,78.6c9.4,23.3,14.6,45.5,15.7,67.8c0.3,5.3-2.5,10.3-7.2,12.7
	c-4.7,2.5-10.4,2.1-14.6-1.1c-0.7-0.5-1.7-1.3-3.1-2.4c-9.7-7.6-39.4-30.8-61.4-36.7c-13.2-3.5-26.1-1.6-38.4,5.8
	c-7,4.2-35.4,30.2-39.2,58c-4.1,30.3,17.4,62.7,32.4,71.4c26,15.1,73.4,0.4,137-42.4c122.7-82.6,186.8-91.9,219-85.2
	c0.9,0.2,1.7,0.4,2.5,0.6C869.6,279.6,706,123.9,506.8,123.9c-200.2,0-364.4,157.3-375.5,354.8C133.6,490.4,139.1,501.5,145.9,507.1
	z"/>
<circle class="st2" cx="516.1" cy="454.6" r="216.5"/>
<path class="st3" d="M275.2,682.9c-9.8-65-1.8-116.8,33.9-187c-12.4,9-25.2,17.5-38.7,24.9C213,552.3,165.3,555.7,132,531
	c12.3,150.5,100.9,268.8,238.3,316.9C330.1,814.2,288.7,772.7,275.2,682.9z"/>
<path class="st4" d="M670.3,736.7c-2.1,0.1-4.2,0.1-6.3,0.1c-56.2,0-111.1-20-151.7-55.4c-45.5-39.6-57.4-110.5-45.7-159.9
	c7.2-30.6,25.9-57.4,49.9-71.7c18.7-11.1,39.2-14.1,59.5-8.7c15.5,4.2,32.3,13.8,47.3,24c-2.2-9.1-5.3-18.3-9.1-27.8
	c-13.9-34.4-44.4-56.3-86-61.7c-21.8-2.9-45.7,1.5-71.1,12.8c-12.4,5.5-72.6,44.8-105.2,91.1C305.1,546,296,645.5,307.2,691
	c7.9,32.1,20.6,68.9,45.6,100.7s62.5,58.4,90.7,70.4c17.3,7.3,74.2,24.1,165.5-0.8c86.9-23.8,176.5-100.9,211.8-154.3
	c-29,10.7-60.1,18.6-96.4,24.7C706.6,734.5,688.3,736.2,670.3,736.7z"/>
<path class="st5" d="M850.1,501.3c-28.7,3.1-82.3,19.9-174.2,81.7c-52.6,35.4-95,52.9-128.2,52.9c-14.2,0-26.8-3.2-37.8-9.6
	c-2.7-1.6-5.3-3.4-7.7-5.2c6.9,15.8,16.4,29.7,28,39.8c37,32.2,87.7,49.9,139.3,48.6c16.8-0.4,33.8-2.1,50.4-4.9
	c48.2-8.1,86.7-19.5,123.4-36.7c24.6-49.2,38.8-104.5,39.6-163C877.8,502.3,867.8,499.3,850.1,501.3z"/>
<path class="st6" d="M292.6,507.4c0,0-96.5,67.3-160.6,23.6c0,0-0.7,10,7.1,49.1C139.1,580,251.1,580,292.6,507.4z"/>
<path class="st7" d="M605.2,407.7c0,0-129.8-50.3-200.3,57.1s-63.7,199.7-43.7,261.1C380.4,785,440,858.9,482.5,874.3
	c0,0-143.2-18.6-179.7-131.5S315.7,485,349,464.8s78.9-113.4,180.9-98.6L605.2,407.7z"/>
<path class="st8" d="M558.1,624.8c0,0-8.2,44.5,211-49.5c0,0,88.6-42.1,128.3-22.5c12.3,6.1-6.3-61.9-6.3-61.9l-101.4,9.7
	L596.7,608.5L558.1,624.8z"/>
<path class="st9" d="M120.2,483.1l25.8,24c0,0,66.3-331.1,356.4-344.6c264.7-12.3,307,195.8,349.8,328.8h49.9
	c0,0-19.9-386.1-424.2-380.7C477.8,110.6,169.6,104.5,120.2,483.1z"/>
<path class="st10" d="M609,861.1c-91.2,25-148.1,8.1-165.5,0.8c-28.2-11.9-65.7-38.6-90.7-70.4s-37.7-68.5-45.6-100.7
	c-11.2-45.4-2.1-145,44.7-211.4c32.6-46.3,92.8-85.6,105.2-91.1c25.4-11.4,49.3-15.7,71.1-12.8c41.6,5.4,72.1,27.4,86,61.7
	c3.8,9.5,6.8,18.7,9.1,27.8c-15-10.2-31.8-19.8-47.3-24c-20.3-5.4-40.8-2.4-59.5,8.7c-24,14.3-42.6,41.1-49.9,71.7
	c-11.7,49.5,0.2,120.3,45.7,159.9c40.5,35.4,95.5,55.4,151.7,55.4c2.1,0,4.2,0,6.3-0.1c18.1-0.5,36.3-2.2,54.2-5.2
	c36.3-6.1,67.3-14,96.4-24.7C785.5,760.2,695.9,837.3,609,861.1z M882.1,475.7c-0.8-0.2-1.6-0.4-2.5-0.6
	c-32.2-6.7-96.2,2.6-219,85.2c-63.6,42.8-111,57.5-137,42.4c-14.9-8.7-36.4-41.1-32.4-71.4c3.8-27.8,32.2-53.8,39.2-58
	c12.3-7.4,25.3-9.3,38.4-5.8c22.1,5.9,51.7,29.1,61.4,36.7c1.4,1.1,2.4,1.9,3.1,2.4c4.2,3.2,9.9,3.6,14.6,1.1
	c4.7-2.5,7.5-7.5,7.2-12.7c-1.1-22.3-6.3-44.5-15.7-67.8c-17.5-43.3-56.8-71.9-107.8-78.6c-26.9-3.5-55.7,1.5-85.8,15
	c-40.2,18-73.6,45.9-105.9,72.9c-27.3,22.8-53.1,44.3-82.7,60.6c-34.1,18.7-81.1,35.6-111.4,10.2c-6.8-5.7-12.2-16.7-14.5-28.5
	c11.1-197.5,175.3-354.8,375.5-354.8C706,123.9,869.6,279.6,882.1,475.7z M882.9,504.8c-0.7,58.5-14.9,113.8-39.6,163
	c-36.8,17.2-75.2,28.6-123.4,36.7c-16.6,2.8-33.5,4.4-50.4,4.9c-51.5,1.4-102.3-16.3-139.3-48.6c-11.6-10.1-21.1-24-28-39.8
	c2.4,1.9,4.9,3.7,7.7,5.2c11,6.4,23.5,9.6,37.8,9.6c33.3,0,75.7-17.5,128.2-52.9c91.9-61.9,145.5-78.6,174.2-81.7
	C867.8,499.3,877.8,502.3,882.9,504.8z M270.4,520.8c13.5-7.4,26.4-15.9,38.7-24.9c-35.8,70.2-43.7,122-33.9,187
	c13.5,89.8,54.9,131.3,95.1,164.9C232.9,799.8,144.3,681.4,132,531C165.3,555.7,213,552.3,270.4,520.8z M794.7,212.2
	C717.8,135.3,615.6,92.9,506.8,92.9s-211,42.3-287.8,119.2C142.1,289,99.8,391.3,99.8,500S142.1,711,219,787.8
	c76.9,76.9,179.1,119.2,287.8,119.2s211-42.3,287.8-119.2C871.5,711,913.9,608.7,913.9,500S871.5,289,794.7,212.2z"/>
</svg>
